<svg width="96" height="96" viewBox="0 0 96 96" fill="none" xmlns="http://www.w3.org/2000/svg">
  <path d="M28.3072 10.5862C30.0574 7.64908 34.164 7.64908 35.9142 10.5862L48.4606 31.6389C50.2507 34.6435 48.0858 38.4615 44.5874 38.4615H19.634C16.1356 38.4615 13.9707 34.6435 15.7608 31.6389L28.3072 10.5862Z" fill="currentColor"/>
  <path d="M60.0858 10.5862C61.836 7.64908 65.9426 7.64908 67.6928 10.5862L80.2392 31.6389C82.0293 34.6435 79.8644 38.4615 76.366 38.4615H51.4126C47.9142 38.4615 45.7493 34.6435 47.5394 31.6389L60.0858 10.5862Z" fill="currentColor"/>
  <path d="M10.1174 54.2243C9.64567 50.4893 13.148 47.5161 16.7946 48.6537L42.9558 56.8114C46.6902 57.9759 47.7738 62.6879 44.9888 65.3527L25.1228 84.3614C22.3378 87.0262 17.7105 85.5671 17.2387 81.8321L10.1174 54.2243Z" fill="currentColor"/>
  <path d="M85.8826 54.2243C86.3543 50.4893 82.852 47.5161 79.2054 48.6537L53.0442 56.8114C49.3098 57.9759 48.2262 62.6879 51.0112 65.3527L70.8772 84.3614C73.6622 87.0262 78.2895 85.5671 78.7613 81.8321L85.8826 54.2243Z" fill="currentColor"/>
  <path d="M43.5128 80.7794C45.4991 78.2713 49.3009 78.2713 51.2872 80.7794L54.6321 85.0037C57.212 88.2609 54.8926 93 50.7305 93H44.0695C39.9074 93 37.588 88.2609 40.1679 85.0037L43.5128 80.7794Z" fill="currentColor"/>
</svg>
