<svg width="1200" height="760" viewBox="0 0 1200 760" fill="none" xmlns="http://www.w3.org/2000/svg">
  <rect width="1200" height="760" rx="36" fill="#D9CCB9"/>
  <rect x="62" y="58" width="1076" height="644" rx="30" fill="url(#bgGlow)"/>

  <circle cx="182" cy="150" r="54" fill="#6A7C62" fill-opacity="0.18"/>
  <circle cx="986" cy="124" r="42" fill="#C6844C" fill-opacity="0.2"/>
  <circle cx="1040" cy="540" r="58" fill="#6A7C62" fill-opacity="0.16"/>

  <rect x="160" y="126" width="312" height="420" rx="24" fill="#4E5C47"/>
  <rect x="192" y="160" width="248" height="352" rx="18" fill="#F7F0E4"/>
  <rect x="214" y="194" width="106" height="12" rx="6" fill="#CEC1AE"/>
  <rect x="214" y="224" width="184" height="8" rx="4" fill="#DCCFBB"/>
  <rect x="214" y="248" width="164" height="8" rx="4" fill="#DCCFBB"/>
  <rect x="214" y="296" width="190" height="18" rx="9" fill="#E6D9C4"/>
  <rect x="214" y="332" width="86" height="66" rx="14" fill="#EFE4D3"/>
  <rect x="312" y="332" width="92" height="66" rx="14" fill="#EFE4D3"/>
  <rect x="214" y="418" width="190" height="10" rx="5" fill="#DDD0BC"/>
  <rect x="214" y="442" width="172" height="10" rx="5" fill="#DDD0BC"/>
  <rect x="214" y="466" width="124" height="10" rx="5" fill="#DDD0BC"/>

  <rect x="490" y="96" width="380" height="510" rx="28" fill="#C7B89F"/>
  <rect x="528" y="134" width="304" height="430" rx="20" fill="#FAF4E9"/>
  <rect x="638" y="108" width="84" height="28" rx="14" fill="#B28A58"/>
  <rect x="562" y="184" width="118" height="12" rx="6" fill="#D0C4B1"/>
  <rect x="562" y="220" width="234" height="52" rx="16" fill="#F0E6D7"/>
  <rect x="584" y="242" width="84" height="8" rx="4" fill="#B8C29D"/>
  <rect x="562" y="302" width="206" height="12" rx="6" fill="#E0D3C0"/>
  <rect x="562" y="330" width="240" height="12" rx="6" fill="#E0D3C0"/>
  <rect x="562" y="358" width="194" height="12" rx="6" fill="#E0D3C0"/>
  <rect x="562" y="404" width="110" height="72" rx="16" fill="#F1E8DA"/>
  <rect x="690" y="404" width="112" height="72" rx="16" fill="#F1E8DA"/>
  <path d="M587 438H648" stroke="#C3B49F" stroke-width="6" stroke-linecap="round"/>
  <path d="M587 458H634" stroke="#C3B49F" stroke-width="6" stroke-linecap="round"/>
  <path d="M715 438H775" stroke="#C3B49F" stroke-width="6" stroke-linecap="round"/>
  <path d="M715 458H758" stroke="#C3B49F" stroke-width="6" stroke-linecap="round"/>
  <rect x="562" y="510" width="240" height="10" rx="5" fill="#DCCFBB"/>
  <rect x="562" y="534" width="210" height="10" rx="5" fill="#DCCFBB"/>

  <rect x="904" y="176" width="140" height="220" rx="22" fill="#E7D9C2"/>
  <rect x="930" y="212" width="88" height="10" rx="5" fill="#CDBEA8"/>
  <rect x="930" y="248" width="86" height="8" rx="4" fill="#D7C8B2"/>
  <rect x="930" y="274" width="72" height="8" rx="4" fill="#D7C8B2"/>
  <rect x="930" y="300" width="94" height="8" rx="4" fill="#D7C8B2"/>
  <rect x="930" y="338" width="76" height="48" rx="14" fill="#F2E8DA"/>

  <rect x="882" y="474" width="186" height="128" rx="24" fill="#4E5C47"/>
  <rect x="916" y="504" width="118" height="68" rx="16" fill="#F8F2E6"/>
  <path d="M940 524H1010" stroke="#CEC1AE" stroke-width="6" stroke-linecap="round"/>
  <path d="M940 548H998" stroke="#CEC1AE" stroke-width="6" stroke-linecap="round"/>

  <rect x="146" y="582" width="168" height="24" rx="12" fill="#B47B47" fill-opacity="0.85"/>
  <rect x="340" y="582" width="222" height="24" rx="12" fill="#6A7C62" fill-opacity="0.85"/>
  <rect x="590" y="582" width="176" height="24" rx="12" fill="#B47B47" fill-opacity="0.68"/>

  <defs>
    <radialGradient id="bgGlow" cx="0" cy="0" r="1" gradientUnits="userSpaceOnUse" gradientTransform="translate(600 180) rotate(90) scale(520 880)">
      <stop stop-color="#E8DCC8"/>
      <stop offset="1" stop-color="#D8CAB5"/>
    </radialGradient>
  </defs>
</svg>
